<?xml version="1.0" standalone="no"?>
<!DOCTYPE svg PUBLIC "-//W3C//DTD SVG 1.1//EN" "http://www.w3.org/Graphics/SVG/1.1/DTD/svg11.dtd" >
<svg xmlns="http://www.w3.org/2000/svg">
<metadata>Generated by IcoMoon</metadata>
<defs>
<font id="Snaapy" horiz-adv-x="1024">
<font-face units-per-em="1024" ascent="960" descent="-64" />
<missing-glyph horiz-adv-x="1024" />
<glyph unicode="&#x20;" horiz-adv-x="0" d="" />
<glyph unicode="&#xe900;" glyph-name="ic_holder_image" d="M953.060 839.998h-878.122c-36.798 0-66.739-29.325-66.739-65.363v-653.267c0-36.044 29.941-65.364 66.739-65.364h878.122c36.798 0 66.741 29.321 66.741 65.364v653.267c0 36.038-29.937 65.363-66.741 65.363zM74.937 783.973h878.122c5.169 0 9.536-4.277 9.536-9.338v-435.034l-152.96 192.257c-11.349 14.265-27.961 22.815-45.579 23.449-17.617 0.645-34.828-6.691-47.221-20.102l-198.461-214.809c-4.777-5.17-15.379-6.597-21.409-2.884l-163.179 100.644c-27.963 17.253-68.887 15.474-95.182-4.127l-173.201-129.098v489.704c0 5.061 4.367 9.338 9.534 9.338zM953.060 112.029h-878.122c-5.167 0-9.534 4.276-9.534 9.338v93.159l207.848 154.921c7.221 5.378 22.386 6.036 30.057 1.303l163.179-100.644c29.494-18.195 70.918-12.614 94.309 12.698l198.458 214.809c1.191 1.289 2.041 1.681 2.701 1.707 0.5-0.018 1.469-0.526 2.559-1.897l198.083-248.969v-127.084c0-5.065-4.367-9.341-9.536-9.341zM430.916 460.717c55.867 0 101.314 44.51 101.314 99.224 0 54.716-45.452 99.225-101.314 99.225-55.865 0-101.314-44.514-101.314-99.225 0-54.71 45.449-99.224 101.314-99.224zM430.916 603.144c24.323 0 44.109-19.378 44.109-43.199s-19.787-43.199-44.109-43.199c-24.324 0-44.109 19.378-44.109 43.199 0 23.819 19.785 43.199 44.109 43.199z" />
<glyph unicode="&#xe901;" glyph-name="ic_holder_video" d="M1005.713 612.386c-6.007 100.326-93.829 183.188-195.812 184.671l-137.375 2.018c-86.061 1.224-226.805 1.331-312.834 0.031l-140.234-2.081c-102.122-1.484-189.217-84.497-194.174-185.053l-0.402-8.106c-4.199-85.492-4.199-224.541 0-310.003l0.402-8.26c4.942-100.434 91.991-183.753 194.034-185.742l140.544-2.645c42.852-0.811 99.279-1.224 155.753-1.224 56.998 0 114.072 0.413 157.328 1.224l137.114 2.645c101.889 1.928 189.649 85.079 195.656 185.329l0.494 8.428c5.128 85.583 5.128 224.862 0 310.476l-0.494 8.29zM943.944 297.213l-0.494-8.395c-4.077-67.781-65.709-126.173-134.599-127.458l-137.114-2.661c-85.411-1.605-225.182-1.635-310.655 0l-140.542 2.661c-69.893 1.346-129.563 58.407-132.929 127.213l-0.401 8.259c-4.139 83.81-4.139 220.23 0 304.070l0.386 8.106c3.381 68.76 62.958 125.547 132.821 126.555l140.234 2.064c42.217 0.628 97.749 0.949 153.434 0.949 57.045 0 114.23-0.336 157.531-0.964l137.36-2.003c70.016-1.010 130.32-57.917 134.474-126.83l0.494-8.29c5.003-83.611 5.003-219.663 0-303.275zM681.606 485.113l-246.817 128.253c-9.683 5.031-21.31 4.711-30.653-0.888-9.343-5.597-15.086-15.553-15.086-26.334v-256.477c0-10.782 5.729-20.753 15.086-26.351 4.942-2.92 10.531-4.403 16.122-4.403 4.973 0 9.976 1.178 14.531 3.533l246.817 128.253c10.239 5.306 16.647 15.782 16.647 27.192s-6.393 21.916-16.647 27.223zM451.436 380.611v154.619l148.758-77.311-148.758-77.308z" />
<glyph unicode="&#xe902;" glyph-name="btn_add" d="M863.304 795.324c-191.508 191.488-503.1 191.488-694.612 0-191.508-191.532-191.508-503.124 0-694.632 191.508-191.512 503.104-191.512 694.612 0 191.508 191.508 191.508 503.1 0 694.632zM803.784 160.212c-158.676-158.676-416.896-158.632-575.572 0-158.672 158.72-158.672 416.876 0 575.572 158.676 158.672 416.896 158.672 575.572 0 158.676-158.7 158.676-416.856 0-575.572zM742.652 490.076h-184.572v184.596c0 23.244-18.836 42.1-42.080 42.1-23.284 0-42.12-18.856-42.12-42.1v-184.596l-184.62-0.020c-23.24 0-42.080-18.836-42.080-42.076 0-11.644 4.712-22.176 12.34-29.78 7.584-7.608 18.14-12.344 29.736-12.32h184.62v-184.616c0-11.6 4.708-22.152 12.296-29.744 7.632-7.628 18.14-12.336 29.784-12.336 23.24 0 42.12 18.836 42.12 42.080v184.616h184.576c23.284 0 42.12 18.86 42.12 42.1 0 23.26-18.876 42.116-42.12 42.096z" />
<glyph unicode="&#xe903;" glyph-name="btn_arrow_left" d="M982.876 510.344h-711.984l326.812 326.844-81.704 81.672-466.876-466.876 466.876-466.876 81.704 81.704-326.812 326.812h711.984v116.72z" />
<glyph unicode="&#xe904;" glyph-name="btn_arrow_right" d="M49.124 393.624h711.984l-326.812-326.844 81.704-81.672 466.876 466.876-466.876 466.876-81.704-81.704 326.812-326.812h-711.984v-116.72z" />
<glyph unicode="&#xe905;" glyph-name="btn_close" d="M973.548 769.088l-341.156-341.16 301.024-300.972c33.256-33.252 33.256-87.188 0-120.388l-0.056-0.056c-33.2-33.256-87.132-33.256-120.388 0l-300.972 301.032-301.028-301.028c-33.256-33.256-87.132-33.256-120.392 0v0.056c-33.256 33.2-33.256 87.132 0 120.388l301.028 300.972-341.16 341.16c-33.256 33.228-33.256 87.132 0 120.388v0c33.256 33.256 87.132 33.256 120.388 0l341.164-341.16 341.156 341.156c33.204 33.256 87.132 33.256 120.392 0v0c33.252-33.256 33.252-87.16 0-120.388z" />
<glyph unicode="&#xe906;" glyph-name="btn_edit" d="M973.788 671.984l-118.812 118.816c-0.056 0.052-0.1 0.052-0.1 0.052s0 0.052-0.056 0.1l-118.812 118.812c-6.452 6.4-15.156 10.036-24.212 10.036-9.064 0-17.764-3.636-24.164-10.036l-575.54-575.536c-4.736-4.708-7.96-10.752-9.316-17.252l-61.892-299.72c-2.304-11.264 1.176-22.936 9.32-31.076 6.476-6.504 15.204-9.984 24.188-9.984 2.304 0 4.604 0.208 6.912 0.72l299.644 61.84c6.552 1.328 12.592 4.604 17.304 9.312l575.536 575.54c13.36 13.364 13.36 34.968 0 48.376zM156.936 241.064l148.12-148.148-186.668-38.548 38.548 186.696zM374.088 120.56l-189.484 189.508 527.192 527.164 70.584-70.544-319.016-319.020c-13.412-13.364-13.412-35.016 0-48.324 6.656-6.708 15.408-10.036 24.164-10.036 8.752 0 17.504 3.328 24.164 10.036l319.020 319.020 70.54-70.588-527.164-527.216z" />
<glyph unicode="&#xe907;" glyph-name="btn_notification" d="M512.148 828.672c22.2 0 40.104-17.884 40.104-39.732 0-1.268 0-2.412-0.184-3.572 104.020-18.612 182.776-108.656 182.776-216.808v-220.28h46.424c8.108 0 14.872-6.58 14.648-14.728v-78.46c0-8.188-6.656-14.756-14.844-14.756h-538.156c-8.228 0-14.84 6.572-14.84 14.756v78.46c0 8.148 6.612 14.728 14.84 14.728h46.42v220.28c0 108.152 78.98 198.196 182.892 216.808-0.192 1.272-0.192 2.416-0.192 3.572 0 21.964 17.908 39.732 40.112 39.732zM595.94 156.288c0-53.668-38.64-96.956-86.34-96.956-47.696 0-86.336 43.288-86.336 96.956h172.676zM512.148 912.404c-44.208 0-83.080-23.216-105-58.060-119.34-42.968-201.54-156.072-201.54-285.78v-143.88c-35.908-14.72-61.26-50.024-61.26-91.128v-78.46c0-54.304 44.22-98.484 98.572-98.484h96.616v-0.32c0-99.632 76.296-180.688 170.068-180.688 93.776 0 170.072 81.056 170.072 180.688v0.32h101.404c54.352 0 98.576 44.18 98.576 98.484v77.864c0.244 25.648-9.82 50.8-27.76 69.248-9.476 9.736-20.876 17.332-33.312 22.42v143.936c0 129.736-82.152 242.836-201.44 285.784-21.924 34.844-60.788 58.056-104.996 58.056v0z" />
<glyph unicode="&#xe908;" glyph-name="btn_picker_decrease" d="M973.548 588.388l-378.16-378.164c0 0-41.388-47.944-83.388-47.944s-89.388 53.944-89.388 53.944l-372.16 372.164c-33.256 33.228-33.256 87.132 0 120.388v0c33.256 33.256 87.132 33.256 120.388 0l341.16-341.156 341.156 341.156c33.204 33.256 87.132 33.256 120.392 0v0c33.252-33.256 33.252-87.16 0-120.388z" />
<glyph unicode="&#xe909;" glyph-name="btn_picker_increase" d="M50.452 307.612l378.16 378.16c0 0 41.388 47.944 83.388 47.944s89.384-53.944 89.384-53.944l372.164-372.164c33.252-33.228 33.252-87.128 0-120.388v0c-33.256-33.256-87.132-33.256-120.392 0l-341.156 341.16-341.16-341.156c-33.204-33.256-87.132-33.256-120.392 0v0c-33.252 33.256-33.252 87.16 0.004 120.388z" />
<glyph unicode="&#xe90a;" glyph-name="btn_remove" d="M516.016 939.176c-270.852-0.016-491.184-220.344-491.184-491.176 0-270.836 220.332-491.168 491.168-491.168 270.832 0 491.16 220.332 491.18 491.18-0.016 270.82-220.348 491.148-491.164 491.164zM516 41.008c-224.404 0-406.96 182.616-406.992 406.992 0.032 224.428 182.576 406.972 406.992 406.988 224.4 0 406.988-182.588 406.988-406.992-0.012-224.412-182.56-406.956-406.988-406.988zM706.052 638.048c-16.464 16.468-43.116 16.452-59.552 0.016l-130.532-130.528-130.56 130.532c-16.432 16.432-43.076 16.432-59.504 0-8.236-8.236-12.348-19.012-12.332-29.784-0.016-10.744 4.096-21.556 12.316-29.74l130.548-130.548-130.544-130.544c-8.204-8.204-12.332-18.996-12.336-29.728 0-10.788 4.104-21.548 12.336-29.78 16.432-16.432 43.104-16.464 59.536-0.032l130.544 130.544 130.512-130.512c16.464-16.464 43.12-16.448 59.556-0.016 16.448 16.448 16.432 43.132-0.016 59.556l-130.512 130.512 130.528 130.532c16.432 16.432 16.444 43.084 0.012 59.52z" />
<glyph unicode="&#xe90b;" glyph-name="btn_view_all" d="M864.872 792.88c-192.372 192.372-505.368 192.372-697.74 0-192.372-192.368-192.372-505.388 0-697.76s505.368-192.372 697.74 0 192.372 505.392 0 697.76zM805.084 154.912c-159.432-159.348-418.772-159.348-578.164 0-159.388 159.432-159.388 418.772 0 578.164s418.728 159.388 578.164 0c159.344-159.392 159.344-418.732 0-578.164zM743.676 306.852h-455.436c-23.344 0-42.268-18.92-42.268-42.264 0-11.696 4.732-22.252 12.396-29.96 7.62-7.62 18.22-12.352 29.872-12.352h455.436c23.344 0 42.264 18.92 42.264 42.312 0 23.34-18.92 42.312-42.264 42.264zM743.676 486.256h-455.436c-23.344 0-42.268-18.92-42.268-42.288 0-11.672 4.732-22.252 12.396-29.916 7.62-7.644 18.22-12.4 29.872-12.376h455.436c23.344 0 42.264 18.944 42.264 42.312 0 23.348-18.92 42.292-42.264 42.268zM743.676 665.664h-455.436c-23.344 0-42.268-18.92-42.268-42.288 0-11.672 4.732-22.252 12.396-29.916 7.62-7.644 18.22-12.372 29.872-12.372l455.436 0.020c23.344 0 42.264 18.92 42.264 42.288 0 23.348-18.92 42.288-42.264 42.268z" />
<glyph unicode="&#xe90c;" glyph-name="ic_dashboard_menu_balance" d="M718.924 637.952c-130.66 78.908-261.448 126.016-349.864 126.016-4.096 0-8.048-0.104-11.864-0.304s-7.492-0.5-11.040-0.884c-1.772-0.192-3.512-0.412-5.22-0.644-46.112-6.384-68.6-28.284-79.536-47.14-7.48-12.908-15.004-27.088-22.284-40.808-7.012-13.212-13.636-25.688-19.896-36.488-15.036-25.944-15.132-55.796-3.956-87.628-68.6-16.904-120.060-40.912-151.54-70.2-23.772-21.844-36.268-46.66-36.268-73.68 0-2.788 0.164-5.532 0.416-8.252 0.152-12.528 0.596-25.584 1.052-38.324 0.532-14.92 1.032-29.012 1.032-41.496 0-116.68 217.22-169.824 419.044-169.824 92.344 0 181.628 11.192 253.356 31.62 55.268-18.708 105.648-28.868 146.66-28.868 0.004 0 0.008 0 0.008 0 66.12 0 95.416 26.752 108.416 49.296 7.080 12.376 14.244 25.948 21.168 39.080s13.472 25.532 19.656 36.272c56.752 98.692-105.012 256.96-279.34 362.256zM110.132 404.596c0 0.464-0.012 0.972-0.012 1.432 0 4.428 6.524 13.26 22.188 23.72 21.976 14.36 61.712 31.796 126.492 45.036 41.14-52.812 103.224-106.896 172.392-154.888-90.748 1.276-174.976 13.62-238.628 35.084-62.248 20.992-79.876 42.552-82.432 49.616zM369.060 681.652c71.848 0 192.476-44.812 307.308-114.164 84.264-50.896 156.628-108.996 203.768-163.592 9.004-10.432 16.348-19.904 22.316-28.424 24.86-35.496 25.924-54.56 24.628-58.328-0.052-0.152-0.104-0.276-0.164-0.376-0.004-0.008-0.008-0.016-0.016-0.024-0.924-1.564-10.2-7.764-36.36-7.764-70.868 0-185.444 41.792-299.028 109.080-86.268 51.092-160.776 109.96-209.804 165.764-50.116 57.048-51.44 85.84-49.092 89.892 0.972 1.676 10.008 7.936 36.444 7.936z" />
<glyph unicode="&#xe90d;" glyph-name="ic_dashboard_menu_calendar" d="M492.857 714.377h47.59c31.031 0 56.167 25.306 56.167 56.533s-25.136 56.533-56.167 56.533h-47.59c-31.031 0-56.172-25.306-56.172-56.533s25.14-56.533 56.172-56.533zM819.935 827.444h-39.515c-31.027 0-56.167-25.306-56.167-56.533s25.14-56.533 56.167-56.533h33.283v-77.247h-599.406v77.247h38.051c31.027 0 56.163 25.306 56.163 56.533s-25.136 56.533-56.163 56.533h-44.27c-58.509 0-106.116-47.556-106.116-106.022v-637.256c0-58.492 47.607-106.043 106.116-106.043h611.857c58.509 0 106.103 47.552 106.103 106.043v637.256c0 58.466-47.594 106.022-106.103 106.022zM813.703 91.193h-599.406v432.866h599.406v-432.866zM370.404 652.518c31.031 0 56.167 25.306 56.167 56.533v148.487c0 31.232-25.136 56.533-56.167 56.533-31.027 0-56.167-25.302-56.167-56.533v-148.487c0-31.227 25.14-56.533 56.167-56.533zM657.613 652.518c31.027 0 56.163 25.306 56.163 56.533v148.487c0 31.232-25.136 56.533-56.163 56.533-31.031 0-56.172-25.302-56.172-56.533v-148.487c0-31.227 25.14-56.533 56.172-56.533zM326.777 467.521c-31.019 0-56.163-25.31-56.163-56.542 0-31.219 25.144-56.533 56.163-56.533 31.023 0 56.172 25.315 56.172 56.533 0 31.232-25.149 56.542-56.172 56.542zM514.008 467.521c-31.019 0-56.172-25.31-56.172-56.542 0-31.219 25.153-56.533 56.172-56.533s56.167 25.315 56.167 56.533c0 31.232-25.149 56.542-56.167 56.542zM701.236 467.521c-31.023 0-56.167-25.31-56.167-56.542 0-31.219 25.144-56.533 56.167-56.533 31.019 0 56.167 25.315 56.167 56.533 0 31.232-25.149 56.542-56.167 56.542zM326.777 279.068c-31.019 0-56.163-25.315-56.163-56.542 0-31.223 25.144-56.534 56.163-56.534 31.023 0 56.172 25.31 56.172 56.534 0 31.227-25.149 56.542-56.172 56.542zM514.008 279.068c-31.019 0-56.172-25.315-56.172-56.542 0-31.223 25.153-56.534 56.172-56.534s56.167 25.31 56.167 56.534c0 31.227-25.149 56.542-56.167 56.542zM701.236 279.068c-31.023 0-56.167-25.315-56.167-56.542 0-31.223 25.144-56.534 56.167-56.534 31.019 0 56.167 25.31 56.167 56.534 0 31.227-25.149 56.542-56.167 56.542z" />
<glyph unicode="&#xe90e;" glyph-name="ic_dashboard_menu_manual_booking" d="M823.113 345.653c-40.933 12.83-113.031 51.058-153.836 78.041 43.402 50.257 70.345 122.244 70.345 203.711 0 42.598-7.752 104.16-25.011 145.634-34.746 83.498-106.446 131.402-196.688 131.402-88.605 0-157.17-43.693-193.043-123.017-19.781-43.824-28.656-108.936-28.656-154.019 0-80.547 26.326-151.852 68.864-202.034-40.259-27.043-114.453-66.593-156.317-79.718-103.419-32.424-111.178-123.945-111.178-259.875 0-32.771 26.684-59.363 59.57-59.363 32.882 0 59.562 26.593 59.562 59.363 0 137.902 12.878 141.957 27.768 146.634 41.43 12.946 168.303 71.692 225.045 124.483 15.543-4.171 31.695-6.521 48.385-6.521 15.638 0 30.843 1.94 45.485 5.612 57.208-52.556 182.826-110.696 223.99-123.574 14.933-4.676 27.808-8.731 27.808-146.634 0-32.771 26.68-59.363 59.563-59.363 32.89 0 59.566 26.593 59.566 59.363 0 135.931-7.756 227.411-111.222 259.875zM415.349 627.405c0 36.487 7.995 82.729 18.192 105.259 16.324 36.196 43.159 53.050 84.383 53.050 42.582 0 70.11-18.475 86.629-58.188 8.958-21.426 15.945-65.414 15.945-100.121 0-85.82-46.963-158.305-102.574-158.305-55.607 0-102.574 72.484-102.574 158.305zM577.334 234.618l-103.889-103.542-26.413 26.322c-23.263 23.187-60.957 23.187-84.223 0-23.271-23.191-23.271-60.757 0-83.944l68.521-68.294c11.631-11.595 26.875-17.391 42.116-17.391s30.48 5.796 42.116 17.391l146.004 145.514c23.263 23.183 23.263 60.754 0 83.944-23.271 23.187-60.965 23.187-84.231 0z" />
<glyph unicode="&#xe90f;" glyph-name="ic_dashboard_menu_media" d="M791.997 905.999h-551.995c-101.625 0-184.001-82.376-184.001-184.001v-551.995c0-101.625 82.376-184.001 184.001-184.001h551.995c101.625 0 184.001 82.376 184.001 184.001v551.995c0 101.625-82.376 184.001-184.001 184.001zM884.004 273.506l-138.004 172.497-158.905-158.905-209.089 250.908-230.011-229.998v367.994c0 76.22 61.788 138.004 138.004 138.004h460.001c76.212 0 137.996-61.784 137.996-138.004v-402.495h0.008zM654.002 722.006c-50.811 0-91.998-41.192-91.998-92.003s41.188-91.998 91.998-91.998c50.811 0 91.998 41.188 91.998 91.998s-41.188 92.003-91.998 92.003z" />
<glyph unicode="&#xe910;" glyph-name="ic_dashboard_menu_notifications" d="M872.139 408.481c-6.159 6.442-12.919 12.232-20.13 17.299v117.204c0 141.035-84.413 264.589-208.505 316.248-29.426 39.341-75.896 64.77-128.097 64.77-52.206 0-98.68-25.429-128.093-64.775-124.15-51.673-208.609-175.236-208.609-316.244v-117.19c-35.608-25.147-58.971-67.069-58.971-114.463v-77.312c0-76.743 61.274-139.173 136.596-139.173h157.592c-1.712-5.745-2.913-11.718-2.913-18.036 0-60.008 45.546-108.809 101.562-108.809 56.012 0 101.562 48.801 101.562 108.809 0 6.319-1.197 12.291-2.914 18.036h162.963c75.313 0 136.592 62.43 136.592 139.173v76.588c0.269 36.286-13.739 71.835-38.635 97.874zM788.468 234.018c0-8.044-6.378-14.535-14.285-14.535h-517.852c-7.903 0-14.294 6.492-14.294 14.535v77.312c0 8.044 6.391 14.535 14.294 14.535h44.676v217.118c0 106.592 75.992 195.353 176.001 213.703-0.205 1.234-0.205 2.372-0.205 3.501 0 21.655 17.226 39.177 38.604 39.177s38.604-17.627 38.604-39.177c0-1.234 0-2.367-0.2-3.501 100.105-18.35 175.892-107.111 175.892-213.703v-217.118h44.681c7.807 0 14.29-6.492 14.085-14.535v-77.312z" />
<glyph unicode="&#xe911;" glyph-name="ic_dashboard_menu_providers" d="M989.142 207.887c-72.574 60.287-150.821 100.27-166.633 108.065-1.829 0.822-2.837 2.663-2.837 4.713v114.212c14.188 9.64 23.512 25.839 23.512 44.495v118.523c0 58.848-47.233 106.627-105.414 106.627h-25.337c-58.181 0-105.414-47.778-105.414-106.627v-118.523c0-18.451 9.328-34.855 23.516-44.495v-114.212c0-0.612-0.201-1.434-0.407-2.050 22.299-15.377 45.411-32.599 68.113-51.464 26.554-22.145 41.757-54.751 41.757-89.61v-95.347h269.818v81.203c0 17.222-7.499 33.63-20.675 44.491zM668.851 229.218c-85.553 71.148-177.786 118.309-196.434 127.539-2.027 1.023-3.445 3.279-3.445 5.539v134.713c16.823 11.28 27.771 30.552 27.771 52.492v139.64c0 69.516-55.743 125.694-124.263 125.694h-29.6c-68.718 0-124.263-56.387-124.263-125.694v-139.64c0-21.939 11.149-41.010 27.771-52.492v-134.713c0-2.465-1.418-4.516-3.445-5.539-18.85-9.229-110.882-56.391-196.43-127.539-15.405-12.919-24.33-31.99-24.33-52.29v-95.762h671.398v95.762c-0.407 20.3-9.324 39.371-24.729 52.29z" />
<glyph unicode="&#xe912;" glyph-name="ic_dashboard_menu_services" d="M122.568 220.728h-32c-41.116 0-74.42-34.196-74.42-76.452 0-42.172 33.304-76.408 74.42-76.408h32c41.12 0 74.424 34.236 74.424 76.408 0 42.256-33.308 76.452-74.424 76.452zM122.568 526.42h-32c-41.116 0-74.42-34.192-74.42-76.428 0-42.216 33.304-76.404 74.42-76.404h32c41.12 0 74.424 34.188 74.424 76.404 0 42.236-33.308 76.428-74.424 76.428zM122.568 832.14h-32c-41.116 0-74.42-34.216-74.42-76.428s33.3-76.432 74.42-76.432h32c41.12 0 74.424 34.216 74.424 76.428s-33.308 76.432-74.424 76.432zM420.332 679.28h521.084c41.144 0 74.448 34.216 74.448 76.428s-33.304 76.428-74.448 76.428h-521.084c-41.144 0-74.448-34.216-74.448-76.428s33.304-76.428 74.448-76.428zM941.416 526.42h-521.084c-41.144 0-74.448-34.192-74.448-76.428 0-42.216 33.304-76.404 74.448-76.404h521.084c41.144 0 74.448 34.188 74.448 76.404 0 42.236-33.304 76.428-74.448 76.428zM941.416 220.728h-521.084c-41.144 0-74.448-34.196-74.448-76.452 0-42.172 33.304-76.408 74.448-76.408h521.084c41.144 0 74.448 34.236 74.448 76.408 0 42.256-33.304 76.452-74.448 76.452z" />
<glyph unicode="&#xe913;" glyph-name="ic_dashboard_menu_settings" d="M920.756 502.948h-11.756l8.212 8.2c15.916 15.864 24.692 36.996 24.708 59.5 0.020 22.528-8.74 43.7-24.68 59.636l-34.672 34.628c-15.916 15.816-37.040 24.524-59.468 24.524-22.436 0-43.568-8.708-59.584-24.616l-8.436-8.42v11.856c0 46.416-37.792 84.184-84.252 84.184h-48.932c-46.46 0-84.252-37.764-84.252-84.184v-11.824l-8.496 8.48c-15.916 15.816-37.040 24.524-59.472 24.524-11.512 0-22.664-2.328-32.968-6.7-5.868 17.172-19.036 30.992-35.824 37.68 3.288 7.648 5.016 15.96 5.016 24.54 0 16.612-6.464 32.208-18.208 43.924l-18.74 18.692c-11.736 11.676-27.308 18.104-43.848 18.104-8.612 0-16.96-1.744-24.652-5.072-9.148 22.9-31.556 39.124-57.688 39.124h-26.46c-26.14 0-48.564-16.224-57.708-39.12-7.684 3.324-16.040 5.068-24.66 5.068-16.544 0-32.116-6.428-43.88-18.136l-18.772-18.72c-11.7-11.732-18.144-27.312-18.144-43.876 0-8.58 1.728-16.884 5.016-24.532-22.928-9.136-39.168-31.54-39.168-57.668v-26.38c0-26.12 16.236-48.524 39.156-57.668-3.296-7.648-5.024-15.964-5.024-24.552 0-16.628 6.484-32.236 18.228-43.916l18.74-18.692c11.736-11.676 27.308-18.104 43.852-18.104 8.616 0 16.968 1.744 24.656 5.068 9.148-22.9 31.572-39.12 57.712-39.12h26.46c26.128 0 48.536 16.22 57.684 39.116 2.992-1.292 6.112-2.272 9.288-3.076-13.66-14.968-21.996-34.86-21.996-56.664v-48.82c0-46.416 37.792-84.184 84.248-84.184h11.728l-8.224-8.212c-15.912-15.864-24.684-36.992-24.704-59.496-0.012-22.524 8.74-43.696 24.672-59.628l34.724-34.68c15.92-15.812 37.048-24.524 59.492-24.524 22.428 0 43.548 8.712 59.56 24.612l8.412 8.4v-11.74c0-46.444 37.804-84.232 84.272-84.232h48.916c46.468 0 84.276 37.784 84.276 84.232v11.74l8.56-8.552c15.94-15.768 37.048-24.46 59.432-24.46 22.428 0 43.544 8.712 59.564 24.616l34.632 34.608c15.9 15.904 24.648 37.048 24.644 59.54-0.008 22.5-8.78 43.648-24.672 59.512l-8.22 8.216h11.712c46.452 0 84.252 37.788 84.252 84.232v48.824c-0.012 46.424-37.808 84.188-84.264 84.188zM290.672 562.9c-6.204 0-12.312-1.38-17.692-3.988-3.2-1.532-6.608-2.948-10.22-4.236-15.836-5.7-26.896-20.936-26.896-37.048v-9.272h-12.7v9.272c0 16.18-11.108 31.432-26.988 37.084-3.556 1.268-6.9 2.668-9.928 4.16l-1.664 0.76c-5.004 2.136-10.62 3.268-16.228 3.268-10.792 0-20.812-4.036-27.848-11.144l-6.572-6.544-8.96 8.936 6.94 6.916c11.164 11.448 13.98 29.916 6.852 44.916l-0.168 0.348c-1.556 3.18-2.956 6.52-4.144 9.872-5.532 15.692-21.156 27.084-37.156 27.084h-9.34v12.552h9.348c16.084 0 31.324 10.996 37.056 26.74l0.16 0.452c1.096 3.144 2.496 6.48 4.104 9.816 7.332 15.052 4.576 33.64-6.704 45.212l-6.94 6.916 8.948 8.924 6.616-6.616c6.992-7.028 17.12-11.060 27.792-11.060 5.628 0 11.248 1.132 16.252 3.268l1.444 0.66c3.392 1.636 6.792 3.064 10.268 4.296 15.82 5.692 26.864 20.932 26.864 37.048v9.272h12.7v-9.272c0-16.112 11.060-31.348 26.98-37.080 3.568-1.276 6.916-2.676 9.936-4.164l2.020-0.912c4.928-2.040 10.416-3.12 15.868-3.12 10.344 0 19.916 3.616 26.936 10.18l7.5 7.488 8.944-8.916-6.94-6.916c-11.18-11.468-13.988-29.956-6.692-45.244 1.556-3.192 2.964-6.548 4.152-9.892 5.528-15.692 21.156-27.084 37.156-27.084h9.344v-12.552h-9.344c-16.084 0-31.324-10.996-37.056-26.74l-0.152-0.428c-1.156-3.304-2.532-6.604-4.236-10.092-7.18-15.052-4.148-34.028 7.188-45.32l6.584-6.556-8.948-8.92-6.672 6.644c-7.032 7.028-17.080 11.032-27.764 11.032zM913.048 377.672h-22.236c-27.46 0-54.348-19.576-63.92-46.504-2.336-6.548-5.032-12.98-8.040-19.18-12.516-25.892-7.392-58.824 12.108-78.236l15.788-15.792-23.664-23.652-15.86 15.84c-12.052 12.052-29.472 18.96-47.796 18.96-10.672 0-21.196-2.364-30.452-6.844-6.344-3.024-12.852-5.736-19.18-8-27.032-9.548-46.648-36.42-46.648-63.896v-22.152h-33.552v22.152c0 27.38-19.56 54.248-46.676 63.94-6.428 2.268-12.844 4.948-19.18 8.016-9.228 4.436-19.752 6.78-30.424 6.78-18.248 0-35.624-6.868-47.776-18.944l-15.88-15.86-23.692 23.664 15.74 15.708c19.584 19.496 24.712 52.448 12.156 78.42-3.028 6.24-5.712 12.644-8.020 19.148-9.624 26.924-36.512 46.472-63.932 46.472h-22.216v33.268h22.216c27.42 0 54.308 19.544 63.976 46.584 2.3 6.5 4.98 12.912 7.928 18.992 12.588 25.868 7.524 58.836-12.068 78.42l-15.768 15.74 23.68 23.632 15.856-15.824c12.048-12.036 29.46-18.94 47.772-18.94 10.516 0 20.94 2.3 30.148 6.652l0.384 0.18c6.224 3.012 12.636 5.688 19.328 8.044 26.916 9.668 46.448 36.524 46.448 63.864v22.156h33.524v-22.148c0-27.34 19.54-54.2 46.72-63.956 6.48-2.28 12.904-4.956 19.184-7.996 9.292-4.468 19.828-6.832 30.452-6.832 18.368 0 35.808 6.948 47.736 18.948l15.876 15.856 23.648-23.616-15.736-15.724c-19.564-19.492-24.68-52.416-12.144-78.344 3.052-6.288 5.732-12.692 7.996-19.072 9.584-27.004 36.492-46.604 63.96-46.604h22.236v-33.32zM646.348 515.5c-66.92 0-121.372-54.348-121.372-121.124 0-66.82 54.448-121.172 121.372-121.172 66.948 0 121.396 54.352 121.396 121.172 0 66.776-54.448 121.124-121.396 121.124zM229.516 703.244c-29.652 0-53.78-24.060-53.78-53.656 0-29.648 24.132-53.704 53.78-53.704s53.78 24.104 53.78 53.704c0.004 29.596-24.128 53.656-53.78 53.656z" />
<glyph unicode="&#xe914;" glyph-name="ic_dashboard_menu_stats" d="M425.666 443.388h18.697v-208.179c0-14.674 13.085-26.569 29.219-26.569h84.83c16.138 0 29.215 11.895 29.215 26.569v208.179h18.701c11.817 0 22.469 6.473 26.998 16.402 4.516 9.929 2.018 21.351-6.335 28.955l-90.333 82.136c-11.405 10.375-29.912 10.375-41.317 0l-90.329-82.136c-8.357-7.604-10.855-19.026-6.335-28.955 4.516-9.929 15.172-16.402 26.989-16.402zM133.744 613.008h18.697v-377.804c0-14.674 13.081-26.565 29.219-26.565h84.834c16.134 0 29.215 11.89 29.215 26.565v377.804h18.697c11.817 0 22.469 6.469 26.989 16.398 4.529 9.929 2.031 21.351-6.331 28.946l-90.329 82.149c-11.405 10.37-29.908 10.37-41.313 0l-90.337-82.141c-8.357-7.604-10.855-19.026-6.331-28.955 4.521-9.924 15.172-16.398 26.989-16.398zM717.583 765.165h18.697v-529.957c0-14.674 13.081-26.569 29.215-26.569h84.834c16.138 0 29.215 11.895 29.215 26.569v529.957h18.701c11.821 0 22.469 6.473 26.993 16.398 4.521 9.929 2.022 21.356-6.331 28.951l-90.333 82.145c-11.41 10.375-29.912 10.375-41.313 0l-90.337-82.145c-8.357-7.595-10.855-19.022-6.331-28.951 4.516-9.924 15.172-16.398 26.989-16.398zM880.752 122.186h-729.511c-25.565 0-46.292-29.249-46.292-65.336 0-36.091 20.728-65.34 46.292-65.34h729.515c25.56 0 46.288 29.249 46.288 65.34-0.004 36.086-20.732 65.336-46.292 65.336z" />
<glyph unicode="&#xe915;" glyph-name="ic_dashboard_menu_transactions" d="M580.272 516.52l65.236 390.692-391.436-65.132 114.136-113.912-342.744-342.084 97.92-97.7 342.748 342.048 114.14-113.912zM1004.696 516.396l-97.916 97.748-342.72-342.084-114.148 113.928-65.232-390.72 391.436 65.132-114.144 113.924 342.724 342.072z" />
<glyph unicode="&#xe916;" glyph-name="ic_dashboard_view_storefront" d="M516.004 750.506c-208.067 0-388.404-122.934-477.030-302.504 88.626-179.574 268.963-302.508 477.030-302.508 208.059 0 388.4 122.934 477.022 302.508-88.618 179.57-268.963 302.504-477.022 302.504zM751.207 590.080c56.051-36.276 103.552-84.866 139.228-142.078-35.676-57.216-83.177-105.806-139.232-142.082-70.429-45.581-151.765-69.674-235.2-69.674-83.443 0-164.779 24.092-235.208 69.674-56.051 36.276-103.548 84.866-139.224 142.082 35.676 57.212 83.173 105.802 139.224 142.078 3.653 2.365 7.338 4.651 11.050 6.901-9.282-25.833-14.358-53.714-14.358-82.807 0-133.651 106.788-242.005 238.515-242.005s238.507 108.354 238.507 242.005c0 29.093-5.072 56.973-14.354 82.807 3.709-2.246 7.397-4.535 11.050-6.901zM516.004 544.423c0-50.121-40.048-90.749-89.445-90.749-49.401 0-89.441 40.628-89.441 90.749s40.040 90.753 89.441 90.753c49.397 0 89.445-40.632 89.445-90.753z" />
<glyph unicode="&#xe917;" glyph-name="ic_location" d="M512.664 930c-200.668 0-362.952-164.7-362.952-368.308 0-105.952 52.2-201.96 103.584-290.536 62.812-110.084 137.86-212.712 225.096-303.776 18.784-19.884 49.76-19.884 69.36 0 76.672 76.96 144.36 163.916 201.436 256.596 61.18 100.192 127.244 216.040 127.244 337.716-0.816 202.772-163.148 368.308-363.768 368.308zM512.664 348.168c-121.508 0-220.22 100.116-220.22 223.444 0 123.348 98.708 223.492 220.22 223.492s220.224-99.328 220.224-223.492-98.712-223.444-220.224-223.444z" />
<glyph unicode="&#xe918;" glyph-name="ic_login_business" d="M72.148 445.692v-455.672h219.58v287.16h159.056v-287.16h505.064v455.672c32.712 27.668 53.54 69.136 53.54 115.408v135.452l-131.452 213.452h-723.952l-135.372-213.188v-135.72c0-46.268 20.824-87.736 53.536-115.404zM308.1 840.252l-59.128-154.504v-124.652c0-12.884-3.020-25.056-8.372-35.896-13.188-26.684-40.552-45.104-72.156-45.104-9.432 0-18.5 1.672-26.952 4.696-31.16 11.168-53.536 41.144-53.536 76.304v115.34l104.008 163.816h116.136zM479.328 840.252v-279.156c0-12.884-3.020-25.056-8.372-35.896-13.192-26.684-40.552-45.104-72.16-45.104-31.568 0-58.968 18.416-72.116 45.104-5.348 10.84-8.372 23.012-8.372 35.896v111.688l64.072 167.468h96.948zM645.576 840.252l64.112-167.468v-111.688c0-12.884-3.024-25.056-8.372-35.896-13.192-26.684-40.552-45.104-72.16-45.104-31.568 0-58.968 18.416-72.116 45.104-5.348 10.84-8.372 23.012-8.372 35.896v279.156h96.908zM839.344 840.252l100.704-163.552v-115.608c0-35.16-22.38-65.136-53.54-76.304-8.452-3.020-17.52-4.696-26.952-4.696-31.604 0-59.008 18.416-72.156 45.104-5.352 10.84-8.372 23.012-8.372 35.896v124.656l-59.132 154.504h119.448zM886.508 59.764h-366.384v287.164h-297.736v-287.164h-80.9v353.032c8.74-1.588 17.764-2.448 26.952-2.448 46.268 0 87.676 21.196 115.2 54.436 27.484-33.24 68.932-54.436 115.16-54.436 46.268 0 87.676 21.196 115.2 54.436 27.524-33.24 68.932-54.436 115.16-54.436 46.268 0 87.676 21.196 115.2 54.436 27.524-33.24 68.932-54.436 115.2-54.436 9.192 0 18.172 0.86 26.952 2.448v-353.032h-0.004z" />
<glyph unicode="&#xe919;" glyph-name="ic_login_user" d="M697.552 433.504h-38.668c74.72 48.396 124.264 132.52 124.264 228.040 0 149.66-121.64 271.42-271.148 271.42s-271.148-121.76-271.148-271.42c0-95.52 49.548-179.644 124.264-228.040h-38.708c-99.372 0-180.228-80.916-180.228-180.408v-252.052c0-16.588 13.424-30.020 29.98-30.020h671.692c16.552 0 29.976 13.428 29.976 30.020v252.052c-0.004 99.488-80.864 180.408-180.276 180.408zM300.812 661.544c0 116.572 94.712 211.404 211.188 211.404 116.432 0 211.192-94.832 211.192-211.404 0-116.556-94.756-211.384-211.192-211.384-116.476 0-211.188 94.828-211.188 211.384zM599.752 404.72l-87.752-87.828-87.748 87.828c27.556-9.456 57.064-14.596 87.748-14.596 30.68-0.004 60.192 5.136 87.752 14.596zM817.864 31.032h-81.56v144.256c0 16.56-13.428 29.984-29.984 29.984s-30.020-13.424-30.020-29.984v-144.256h-328.64v144.256c0 16.56-13.424 29.984-29.98 29.984s-29.98-13.424-29.98-29.984v-144.256h-81.564v222.068c0 66.38 53.972 120.388 120.272 120.388h44.264l120.116-120.232c5.868-5.868 13.54-8.848 21.212-8.848s15.34 2.98 21.212 8.848l120.116 120.232h44.224c66.344 0 120.312-54.008 120.312-120.388v-222.068z" />
<glyph unicode="&#xe91a;" glyph-name="ic_search" d="M966.632 108.876l-204.916 204.964c-1.104 1.060-2.396 1.844-3.548 2.856 40.356 61.18 63.9 134.412 63.9 213.168 0 214.224-173.684 387.884-387.908 387.884s-387.908-173.66-387.908-387.884 173.684-387.908 387.908-387.908c78.736 0 151.984 23.588 213.164 63.856 1.012-1.104 1.752-2.396 2.856-3.504l204.964-204.916c30.772-30.82 80.716-30.82 111.488 0 30.82 30.772 30.82 80.708 0 111.484zM434.16 276.428c-139.96 0-253.428 113.472-253.428 253.432s113.468 253.428 253.428 253.428c139.96 0 253.428-113.468 253.428-253.428s-113.468-253.432-253.428-253.432z" />
<glyph unicode="&#xe91b;" glyph-name="ind_event_canceled" d="M716.336 643c29.544 0 53.432 24.020 53.432 53.652v134.44c0 29.628-23.892 53.628-53.432 53.628-29.5 0-53.392-24-53.392-53.628v-134.444c0-29.628 23.936-53.648 53.392-53.648zM445.5 721.316h133.004c23.588 0 42.74 19.212 42.74 42.912s-19.148 42.912-42.74 42.912h-133.004c-23.588 0-42.74-19.212-42.74-42.912s19.152-42.912 42.74-42.912zM954.396 807.136h-98.456c-23.588 0-42.74-19.212-42.74-42.912 0-23.696 19.148-42.912 42.74-42.912h55.72v-174.252h-799.316v174.256h55.72c23.588 0 42.74 19.212 42.74 42.912s-19.148 42.912-42.74 42.912h-98.5c-23.588 0-42.74-19.212-42.74-42.912v-710.036c0-23.72 19.148-42.916 42.74-42.916h884.832c23.632 0 42.78 19.196 42.78 42.916v710.036c0 23.696-19.148 42.908-42.78 42.908zM911.656 97.060h-799.312v385.616h799.312v-385.616zM308.228 643c29.5 0 53.436 24.020 53.436 53.652v134.44c0 29.628-23.936 53.628-53.436 53.628-29.54 0-53.432-24-53.432-53.628v-134.444c-0.004-29.628 23.888-53.648 53.432-53.648zM587.576 292.54l38.048 38.044c20.952 20.952 20.992 54.852 0.132 75.708-20.892 20.892-54.752 20.812-75.704-0.136l-38.044-38.044-38.044 38.044c-20.948 20.948-54.848 20.996-75.708 0.132-20.888-20.888-20.812-54.752 0.136-75.704l38.048-38.044-38.024-38.028c-20.952-20.944-21.040-54.824-0.156-75.716 20.86-20.86 54.768-20.8 75.724 0.148l38.028 38.028 38.024-38.024c20.944-20.948 54.828-21.040 75.72-0.156 20.86 20.86 20.796 54.768-0.156 75.724l-38.024 38.024z" />
<glyph unicode="&#xe91c;" glyph-name="ind_event_succsess" d="M995.96 749.768l-503.128-503.124-190.276 190.232c-16.46 16.504-16.46 43.132 0 59.628 16.456 16.456 43.124 16.456 59.584 0l130.692-130.692 443.548 443.584c16.416 16.456 43.124 16.456 59.584 0 16.452-16.5 16.452-43.128-0.004-59.628zM745.096 778.316c-159.156 114.756-382.908 101.008-526-42.080-158.848-158.848-158.848-417.304 0-576.196 158.844-158.8 417.308-158.8 576.156 0 99.304 99.352 136.54 237.552 111.704 366.064 26.796 16.496 54.912 30.992 69.58 33.784 2.66 0.524 5.628 0.832 8.512 1.18 37.584-160.332-5.416-335.856-130.164-460.608-191.72-191.716-503.652-191.716-695.368 0-191.76 191.716-191.76 503.692 0 695.408 174.56 174.56 448.56 189.62 640.928 46.272-11.828-22.22-29.94-43.828-47.404-58.756-2.576-2.188-5.284-3.408-7.944-5.068z" />
<glyph unicode="&#xe91d;" glyph-name="ind_replaced_date" d="M855.82 791.804c-189.568 189.568-498.024 189.568-687.588 0-189.612-189.568-189.612-498.048 0-687.612 189.568-189.568 498.024-189.568 687.588 0 189.572 189.564 189.572 498.048 0 687.612zM796.864 163.108c-157.108-157.024-412.652-157.024-569.72 0-157.068 157.108-157.068 412.668 0 569.736s412.608 157.068 569.72 0c157.024-157.064 157.024-412.624 0-569.736zM736.348 489.628h-182.748l0.084 182.704c0 23.052-18.644 41.696-41.672 41.696-23.048 0-41.696-18.644-41.696-41.696v-266.052h266.028c23.052 0 41.696 18.648 41.696 41.696 0.004 23.008-18.64 41.696-41.692 41.652z" />
<glyph unicode="&#xe91e;" glyph-name="ind_star_empty" d="M513 819.916l100.428-200.972c14.076-28.164 41.068-47.636 72.236-52.112l222.092-31.884-159.904-153.956c-22.96-22.108-33.452-54.176-27.996-85.584l38.008-218.848-200.64 104.144c-13.864 7.196-29.044 10.792-44.224 10.792s-30.364-3.596-44.228-10.792l-200.688-104.168 38.012 218.872c5.456 31.408-5.036 63.472-28 85.584l-159.9 153.956 222.136 31.884c31.168 4.476 58.16 23.948 72.236 52.112l100.432 200.972zM513 915.992c-17.184 0-34.052-4.548-48.768-13.164-15.86-9.276-28.568-22.9-36.796-39.376l-100.736-201.592-225.292-32.34c-18.376-2.652-35.424-10.4-49.272-22.42-12.844-11.152-22.444-25.572-27.748-41.732-5.3-16.132-6.124-33.368-2.376-49.868 4.020-17.756 13.208-33.916 26.508-46.736l162.992-156.932-38.484-221.588c-4.752-27.472 2.924-55.352 21.024-76.56 18.236-21.392 44.884-33.688 73.040-33.688 15.356 0 30.716 3.792 44.424 10.92l201.48 104.58 201.48-104.58c13.712-7.128 29.068-10.92 44.38-10.92 28.204 0 54.804 12.296 73.084 33.688 18.1 21.208 25.736 49.084 20.98 76.56l-38.484 221.588 162.992 156.932c13.3 12.82 22.488 28.98 26.556 46.736 3.748 16.48 2.924 33.736-2.38 49.868-5.344 16.16-14.944 30.58-27.788 41.732-13.8 12.020-30.852 19.768-49.268 22.42l-225.248 32.336-100.74 201.592c-8.232 16.48-20.98 30.1-36.84 39.376-14.712 8.62-31.532 13.168-48.72 13.168v0z" />
<glyph unicode="&#xe91f;" glyph-name="ind_star_full" d="M973.82 607.1c-13.8 12.020-30.852 19.768-49.268 22.42l-225.248 32.336-100.74 201.592c-8.232 16.48-20.98 30.1-36.84 39.376-14.72 8.616-31.54 13.164-48.724 13.164s-34.052-4.548-48.768-13.164c-15.86-9.276-28.568-22.9-36.796-39.376l-100.736-201.588-225.292-32.34c-18.376-2.652-35.424-10.4-49.272-22.42-12.844-11.152-22.444-25.572-27.748-41.732-5.3-16.132-6.124-33.368-2.376-49.868 4.020-17.756 13.208-33.916 26.508-46.736l162.992-156.932-38.484-221.588c-4.752-27.472 2.924-55.352 21.024-76.56 18.236-21.392 44.884-33.688 73.040-33.688 15.356 0 30.716 3.792 44.424 10.92l201.48 104.58 201.48-104.58c13.712-7.128 29.068-10.92 44.38-10.92 28.204 0 54.804 12.296 73.084 33.688 18.1 21.208 25.736 49.084 20.98 76.56l-38.484 221.588 162.992 156.932c13.3 12.82 22.488 28.98 26.556 46.736 3.748 16.48 2.924 33.736-2.38 49.868-5.34 16.16-14.94 30.58-27.784 41.732z" />
<glyph unicode="&#xe920;" glyph-name="ind_star_half" d="M513 819.916l100.428-200.972c14.076-28.164 41.068-47.636 72.236-52.112l222.092-31.884-159.904-153.956c-22.96-22.108-33.452-54.176-27.996-85.584l38.008-218.848-200.64 104.144c-13.864 7.196-29.044 10.792-44.224 10.792s0 628.42 0 628.42zM513 915.992c-17.184 0-34.052-4.548-48.768-13.164-15.86-9.276-28.568-22.9-36.796-39.376l-100.736-201.592-225.292-32.34c-18.376-2.652-35.424-10.4-49.272-22.42-12.844-11.152-22.444-25.572-27.748-41.732-5.3-16.132-6.124-33.368-2.376-49.868 4.020-17.756 13.208-33.916 26.508-46.736l162.992-156.932-38.484-221.588c-4.752-27.472 2.924-55.352 21.024-76.56 18.236-21.392 44.884-33.688 73.040-33.688 15.356 0 30.716 3.792 44.424 10.92l201.48 104.58 201.48-104.58c13.712-7.128 29.068-10.92 44.38-10.92 28.204 0 54.804 12.296 73.084 33.688 18.1 21.208 25.736 49.084 20.98 76.56l-38.484 221.588 162.992 156.932c13.3 12.82 22.488 28.98 26.556 46.736 3.748 16.48 2.924 33.736-2.38 49.868-5.344 16.16-14.944 30.58-27.788 41.732-13.8 12.020-30.852 19.768-49.268 22.42l-225.248 32.336-100.74 201.592c-8.232 16.48-20.98 30.1-36.84 39.376-14.712 8.62-31.532 13.168-48.72 13.168v0z" />
</font>
</defs>
</svg>
